HIERARCHY
ROOT hip
{
  OFFSET 0 0 0
  CHANNELS 6 Xposition Yposition Zposition Zrotation Yrotation Xrotation
  JOINT abdomen
  {
    OFFSET 0 20.6881 -0.73152
    CHANNELS 3 Zrotation Xrotation Yrotation
    JOINT chest
    {
      OFFSET 0 11.7043 -0.48768
      CHANNELS 3 Zrotation Xrotation Yrotation
      JOINT neck
      {
        OFFSET 0 22.1894 -2.19456
        CHANNELS 3 Zrotation Xrotation Yrotation
        JOINT head
        {
          OFFSET -0.24384 7.07133 1.2192
          CHANNELS 3 Zrotation Xrotation Yrotation
          JOINT leftEye
          {
            OFFSET 4.14528 8.04674 8.04672
            CHANNELS 3 Zrotation Xrotation Yrotation
            End Site
            {
              OFFSET 1 0 0
            }
          }
          JOINT rightEye
          {
            OFFSET -3.6576 8.04674 8.04672
            CHANNELS 3 Zrotation Xrotation Yrotation
            End Site
            {
              OFFSET 1 0 0
            }
          }
        }
      }
      JOINT rCollar
      {
        OFFSET -2.68224 19.2634 -4.8768
        CHANNELS 3 Zrotation Xrotation Yrotation
        JOINT rShldr
        {
          OFFSET -8.77824 -1.95073 1.46304
          CHANNELS 3 Zrotation Xrotation Yrotation
          JOINT rForeArm
          {
            OFFSET -28.1742 -1.7115 0.48768
            CHANNELS 3 Zrotation Xrotation Yrotation
            JOINT rHand
            {
              OFFSET -22.5879 0.773209 7.07136
              CHANNELS 3 Zrotation Xrotation Yrotation
              JOINT rThumb1
              {
                OFFSET -1.2192 -0.487915 3.41376
                CHANNELS 3 Zrotation Xrotation Yrotation
                JOINT rThumb2
                {
                  OFFSET -3.37035 -0.52449 3.41376
                  CHANNELS 3 Zrotation Xrotation Yrotation
                  End Site
                  {
                    OFFSET -1.78271 -1.18214 1.43049
                  }
                }
              }
              JOINT rIndex1
              {
                OFFSET -7.75947 0.938293 5.60832
                CHANNELS 3 Zrotation Xrotation Yrotation
                JOINT rIndex2
                {
                  OFFSET -2.54057 -0.884171 1.56538
                  CHANNELS 3 Zrotation Xrotation Yrotation
                  End Site
                  {
                    OFFSET -1.62519 -0.234802 1.16502
                  }
                }
              }
              JOINT rMid1
              {
                OFFSET -8.24714 1.18213 3.41376
                CHANNELS 3 Zrotation Xrotation Yrotation
                JOINT rMid2
                {
                  OFFSET -3.10165 -0.590103 1.0647
                  CHANNELS 3 Zrotation Xrotation Yrotation
                  End Site
                  {
                    OFFSET -2.48547 -0.328903 0.83742
                  }
                }
              }
              JOINT rRing1
              {
                OFFSET -8.82822 0.546677 1.51678
                CHANNELS 3 Zrotation Xrotation Yrotation
                JOINT rRing2
                {
                  OFFSET -2.60934 -0.819778 -0.0198488
                  CHANNELS 3 Zrotation Xrotation Yrotation
                  End Site
                  {
                    OFFSET -2.33842 -0.294052 0.168128
                  }
                }
              }
              JOINT rPinky1
              {
                OFFSET -8.27202 -0.0477905 -0.4584
                CHANNELS 3 Zrotation Xrotation Yrotation
                JOINT rPinky2
                {
                  OFFSET -1.82734 -0.647385 -0.700984
                  CHANNELS 3 Zrotation Xrotation Yrotation
                  End Site
                  {
                    OFFSET -1.69225 -0.51767 -0.607171
                  }
                }
              }
            }
          }
        }
      }
      JOINT lCollar
      {
        OFFSET 2.68224 19.2634 -4.8768
        CHANNELS 3 Zrotation Xrotation Yrotation
        JOINT lShldr
        {
          OFFSET 8.77824 -1.95073 1.46304
          CHANNELS 3 Zrotation Xrotation Yrotation
          JOINT lForeArm
          {
            OFFSET 28.1742 -1.7115 0.48768
            CHANNELS 3 Zrotation Xrotation Yrotation
            JOINT lHand
            {
              OFFSET 22.5879 0.773209 7.07136
              CHANNELS 3 Zrotation Xrotation Yrotation
              JOINT lThumb1
              {
                OFFSET 1.2192 -0.487915 3.41376
                CHANNELS 3 Zrotation Xrotation Yrotation
                JOINT lThumb2
                {
                  OFFSET 3.37035 -0.52449 3.41376
                  CHANNELS 3 Zrotation Xrotation Yrotation
                  End Site
                  {
                    OFFSET 1.78271 -1.18214 1.43049
                  }
                }
              }
              JOINT lIndex1
              {
                OFFSET 7.75947 0.938293 5.60832
                CHANNELS 3 Zrotation Xrotation Yrotation
                JOINT lIndex2
                {
                  OFFSET 2.54057 -0.884171 1.56538
                  CHANNELS 3 Zrotation Xrotation Yrotation
                  End Site
                  {
                    OFFSET 1.62519 -0.234802 1.16502
                  }
                }
              }
              JOINT lMid1
              {
                OFFSET 8.24714 1.18213 3.41376
                CHANNELS 3 Zrotation Xrotation Yrotation
                JOINT lMid2
                {
                  OFFSET 3.10165 -0.590103 1.0647
                  CHANNELS 3 Zrotation Xrotation Yrotation
                  End Site
                  {
                    OFFSET 2.48547 -0.328903 0.83742
                  }
                }
              }
              JOINT lRing1
              {
                OFFSET 8.82822 0.546677 1.51678
                CHANNELS 3 Zrotation Xrotation Yrotation
                JOINT lRing2
                {
                  OFFSET 2.60934 -0.819778 -0.0198488
                  CHANNELS 3 Zrotation Xrotation Yrotation
                  End Site
                  {
                    OFFSET 2.33842 -0.294052 0.168128
                  }
                }
              }
              JOINT lPinky1
              {
                OFFSET 8.27202 -0.0477905 -0.4584
                CHANNELS 3 Zrotation Xrotation Yrotation
                JOINT lPinky2
                {
                  OFFSET 1.82734 -0.647385 -0.700984
                  CHANNELS 3 Zrotation Xrotation Yrotation
                  End Site
                  {
                    OFFSET 1.69225 -0.51767 -0.607171
                  }
                }
              }
            }
          }
        }
      }
    }
  }
  JOINT rButtock
  {
    OFFSET -8.77824 4.35084 1.2192
    CHANNELS 3 Zrotation Xrotation Yrotation
    JOINT rThigh
    {
      OFFSET 0 -1.70687 -2.19456
      CHANNELS 3 Zrotation Xrotation Yrotation
      JOINT rShin
      {
        OFFSET 0 -36.8199 0.73152
        CHANNELS 3 Zrotation Xrotation Yrotation
        JOINT rFoot
        {
          OFFSET 0.73152 -45.1104 -5.12064
          CHANNELS 3 Zrotation Xrotation Yrotation
          End Site
          {
            OFFSET -1.1221 -3.69964 12.103
          }
        }
      }
    }
  }
  JOINT lButtock
  {
    OFFSET 8.77824 4.35084 1.2192
    CHANNELS 3 Zrotation Xrotation Yrotation
    JOINT lThigh
    {
      OFFSET 0 -1.70687 -2.19456
      CHANNELS 3 Zrotation Xrotation Yrotation
      JOINT lShin
      {
        OFFSET 0 -36.8199 0.73152
        CHANNELS 3 Zrotation Xrotation Yrotation
        JOINT lFoot
        {
          OFFSET -0.73152 -45.1104 -5.12064
          CHANNELS 3 Zrotation Xrotation Yrotation
          End Site
          {
            OFFSET 1.1221 -3.69964 12.103
          }
        }
      }
    }
  }
}
MOTION
Frames:	4
Frame Time:	0.03333
0.024660862982273102 61.8088960647583 0.1067308709025383 -6.221298722960447 5.738148643433494 2.8234145071152117 -2.2730694534204954 14.840938972021771 3.705376344071448 2.7386492981944146 -9.690808998197491 1.117095261280451 -4.830270080558467 15.339804036168454 -3.4087926682799807 8.62982363422699 -25.004811994776222 -4.986642565850854 0.07897675700134342 0.03095847274331748 0.02536356063729856 0.015307948033879516 -0.027138956254252306 0.0509933118892425 -0.004001903884245674 -0.0034174691429600126 0.015515735195035997 49.53033595511431 29.92196592355866 15.297468816145424 -23.95210225875884 -29.71265477644362 66.80903091361617 -4.791804162700248 -11.514142511284382 -5.173975017990441 -0.037220475551749795 0.03593901466957904 0.0012102241435616343 -0.0059154774297599496 -0.018069212088415842 -0.01867144267414056 0.02624318761677571 -0.013663579991198946 -0.04214717637744462 7.774164855764472 5.468643892936777 0.4469442072320683 0.0025644158682224436 0.0061421009719868575 -0.025974889248441147 2.9316158026256147 0.9944753297104449 0.07970958827451818 -0.01133768713539804 -0.06318656025946398 0.027779019684676547 10.21295134703558 0.6898956368350085 0.04965013918070363 0.008421623246625721 -0.04315153435055384 -0.0013790845625343323 2.2173970083825445 -0.7690917869830122 -0.2210304977507397 -0.004404831684423536 0.05963262073523593 -0.007477456315577241 -58.30606011397559 31.977022995748342 -25.876777849882146 22.971136829783266 -27.558705102808617 -62.638592538487245 5.296107338086731 -13.990337094866002 4.081928941882483 0.010054732149346348 -0.014560415845733353 -0.001962078560791944 -0.007680974608502465 0.0061625381786440045 -0.019132640525675093 -0.03106498100568737 -0.018857111761773838 -0.029723755968279007 -7.7671545203551 5.499436093262487 -0.4479256200384345 0.009697908126066074 -0.021411042222403254 -0.007235544888997141 -2.9477659983615214 0.9438918024909768 -0.06997627522255911 0.023505722502628647 0.02368175995631515 -0.046615080589984995 -10.263154944982466 0.728543621923291 -0.022397364227235407 0.012472725837236643 -0.001405925071538367 -0.01236200206748839 -2.2180670072514403 -0.7493824223592942 0.21482001484577337 -0.04372921894394882 0.028031683323114127 0.01206814385061917 -32.16344276386008 -35.92436007182796 -28.211338215739797 -5.505596497007015 62.230481905389816 6.5423056611199994 -4.68357085067811 -10.169483169383971 -10.395582067705258 0.017111384779027336 0.011617324684971883 0.02000957278208126 37.76281476996361 -33.99817842399266 31.151420464728464 5.362300408880617 63.21739642913247 -6.413066102305487 5.052646525782095 -10.170460740208929 13.978070075116658
0.025256071239709854 62.917929887771606 0.30443696305155754 -7.009796678201052 6.138880964680019 2.1452341388106557 -2.2897378897596767 14.85328453894657 3.443820439664745 2.8668854595311695 -9.657820892053623 1.0487070317203462 -4.935150196584951 15.500197368447864 -3.6237257014121766 8.708860875755084 -24.96710764301046 -5.074317008471254 0.06279566533161297 0.007720675083053163 0.0010854931499295656 0.0032013310083261327 0.006215418783858713 0.02023262114716449 -0.012166274459085212 -0.02260869988510912 0.024438416850305622 50.56955265242634 29.83124052081338 14.991691492287707 -24.215173824831048 -29.560546463627436 66.5481586684567 -4.907558366772215 -11.658368785798372 -5.3565092622380925 -0.029757533388158834 0.012356932786463772 0.017873324397453993 -0.03372469935717265 -0.07129447505194512 -0.001486206474712462 0.06393355883908124 -0.041888376240924605 -0.06622316631491644 8.010923971832856 5.578337157894005 0.4614293309143728 0.06295331997147861 -0.002668576253065138 -0.06450137167469143 3.0106585936824106 0.9602390064957561 0.04152485543060654 0.00400163707998122 -0.07375798554735122 -0.060428604577806876 10.47622781878289 0.7592374248362705 0.08495378617491281 0.006144021962690923 -0.024210352565050667 -0.05202652474355238 2.240743021852471 -0.8002281114490145 -0.23214188150902818 0.031140700055939306 0.03708984818387331 0.011391154709994546 -58.823392302090696 31.8535809868787 -26.39578001924932 23.12445920872442 -27.352721965366662 -62.197492091698656 5.2355086191099085 -13.961656276767473 4.379947170843064 0.028808350536938625 -0.023487046204116895 0.012378010323355608 0.00526084648649654 0.08105332127201241 0.00669902819360735 0.03753242309774897 -0.04339056429107784 0.00026344253072150745 -7.9111502759846015 5.601716468536135 -0.4977560655410559 0.026142148841827122 -0.0010243682929432405 -0.002961607376714552 -3.0044183621019576 1.0074646419645168 -0.13531274424499037 0.013559152802091797 -0.04418428029740092 0.029108371932316725 -10.469150035255465 0.7237414119673903 -0.031107883131411513 -0.010842231616307662 0.01935731639677149 0.020815428382436985 -2.2767118652388163 -0.7316770779267402 0.26198119040424206 -0.0005170133036582308 0.1132428288915189 0.024259471230136578 -32.23815478809627 -35.857950142527926 -27.590624284347378 -4.812255456622558 61.94350467722256 6.002713886499822 -4.699293946147479 -10.197977864827617 -10.48657555537546 5.752299941620114e-05 -0.03312884539336837 -0.01037740522677656 37.94432021696753 -33.61751832116951 30.265445891634847 4.786952167068599 62.85750693157532 -5.966225735293144 5.061641884919003 -10.135535421661716 14.010284662337025
-0.0035818666219711304 64.05527591705322 0.8392534218728542 -12.226132529423912 -28.577465383556454 9.831241102627539 8.430660440671295 12.66749593849555 11.408987480143804 -1.6298647763082823 -7.642398553843878 2.789417880851708 -2.487016377991271 12.751793279458202 1.9181173288596265 5.323769604225283 -24.675747140943347 4.518292652481672 0.1876163852378175 0.014812599236494918 -0.08848795550314484 -0.022646772853646652 0.15334655140751324 0.31393614490385474 0.031061886076219708 -0.028845249566712562 0.1626820859815984 53.59766237943813 45.72893611593577 11.447613053673873 -24.562434302612836 -24.70371505804726 57.96739884435885 0.8152748581079938 9.311483343583433 2.6343384357465682 -0.03774405224031359 0.17046433948888745 -0.22207196819703443 -0.13332651989826538 0.10083157475681238 0.04272646179642633 0.0026762602158814023 -0.10913201550652327 -0.0320508761236964 7.687839802391974 5.5198814107692735 0.5946552656049392 -0.2714710979257401 -0.1233769886703931 -0.11781681447960604 2.7923128138427353 0.8145233238558809 0.2152966606642198 -0.08947147606320023 -0.12937840375373355 -0.0796663659836767 10.152966918197235 0.562762977936034 -0.05542143558595284 0.0053629791589293865 0.007618008802091409 0.039325107631039316 2.1728270358404496 -0.6945357365198273 -0.22523154433797357 0.13402474665834052 -0.13666210681246457 -0.08029655765631616 -59.241413539673815 27.525947515549234 -20.492157236567575 21.547182406713592 -19.79382503544713 -49.385935510776484 -1.717545408787617 -3.4182264401842377 1.6695086883549173 0.23086108763751856 0.06599136676995913 0.14841520818761691 -0.15902451968105658 0.18747252437842413 0.0804412722893558 -0.04964448293029721 0.0038411543149123664 0.11792625758888492 -7.77205176599 5.6144436722808075 -0.5700307260997507 0.34497033669742416 0.07980056852869687 0.1411064522084537 -3.127727395726194 0.7740969282624564 -0.08220887722178749 0.21181638579740739 0.11153976391065853 -0.11319026845142155 -10.33022057244282 0.7966267874874194 0.07927010829011018 0.3114384301017457 0.1099265852864926 -0.05305797668971687 -2.3310172052257068 -0.557615683344489 0.2536197581996771 0.011959447793280764 0.08770640577128085 -0.049508626198837426 -4.166206646051269 1.601665273102827 -6.434026245320964 0.6060024509721518 45.476277173253244 1.021419145325676 -13.618215582279014 -18.072876911792378 -34.31161580500455 0.12258289913809978 -0.15533250894997377 -0.11813078973801507 63.77590099756441 -57.35248374357177 54.42767379756725 -1.054906709052602 69.1824533483039 1.0989758366294649 -0.8816528776179992 3.137066612199129 2.4720565561616503
-0.22646905854344368 63.39974403381348 0.7856550626456738 -14.346827719537416 -27.818305225235168 3.7977089757057962 7.492133538329952 13.40285971774851 11.870982329377112 -1.0137571671808026 -8.05634472981344 3.4303060566182286 -2.88654060952835 13.305468904146945 0.4100038761579948 6.758699714404343 -25.86617227364841 4.2291613534049235 0.14352041715195074 0.015899132923055854 -0.3161928020530299 0.22061575052164656 0.21182182860440224 -0.04192930401509179 -0.11080490492507393 0.3958201612532435 0.07119650452603776 55.99641798575744 49.474369385055226 9.953146318933927 -24.701237406925838 -25.74239558550944 61.77354224991596 0.7553854115877949 12.569329044649542 4.043855333014715 0.018719840967712446 0.04631006995486161 0.10688675089944025 -0.10665527151960028 -0.09286917501016423 -0.054850581181727864 0.007810001150792237 -0.2581344065193497 0.046494164897334614 7.678753943248564 5.543402874723505 0.5690569972562007 -0.06317327340709418 -0.020075553476680642 0.2856888303742092 2.8912205697702786 0.9482956736800483 -0.003002375068323066 0.3653581845656478 -0.20496826738082335 -0.2091901247006846 10.127674727700677 0.6643315194321202 -0.192620405939351 0.34958946556705683 0.21174280118127106 -0.18792931995959516 1.9339407427324304 -0.39618480264147227 -0.4539293563188757 0.023941413866481413 0.08183954007850434 0.12219144392129343 -57.64426259472555 28.2524047281245 -23.748917791329298 20.946559476764765 -16.340734108087972 -44.08257024292297 0.5148045378745251 -3.676779622677074 -0.2900654875283064 0.23319669216854558 -0.051407258705542296 0.12505702844323113 -0.11326214552026535 -0.1084972881613881 0.0859634802333111 -0.10907748071486895 0.22548164665547238 -0.18680892881187508 -7.976788393908424 5.63904686744484 -0.505874225617292 0.49705666484221717 -0.1018042363833045 0.1261565288170445 -3.1543380261759757 1.0044324648598542 0.020719512249365905 0.35352445494177753 -0.03283528066119005 0.29097833163870807 -10.383921227244754 0.6218274656705425 0.18811280125225993 0.17187306600520258 -0.12485177592258695 0.15585168336817407 -2.1103293108309518 -0.6791997206773273 -0.02370913407384809 -0.06954733400659702 0.016984172505735848 0.03537189552505642 -5.508617575054276 -1.0130421317520668 -7.728166946799021 0.556699584222061 46.060408611451074 1.7946482126767176 -13.326508448111523 -17.601462377919976 -33.12297164412557 0.0010090537281636025 -0.5346294287447515 -0.1312311992878053 61.73108579403517 -53.81222594202491 52.90816844310368 -1.3442975553178111 68.98015680546645 0.2669495126951916 1.0826883967799232 0.8776219987906339 3.9239398361909172
